<?xml version="1.0" encoding="UTF-8" standalone="no"?>
<svg 
    role="img" 
    xmlns="http://www.w3.org/2000/svg" 
    width="100"
    height="100"
    viewBox="0 0 1000 1000"
    style="max-width:1.6em; height: auto;">
    
    <path 
        id="path" 
        style="opacity:1;vector-effect:none;fill:#FF840C;fill-opacity:1;"
        d="M 500 0C 224 0 0 224 0 500C 0 776 224 1000 500 1000C 776 1000 1000 776 1000 500C 1000 224 776 0 500 0C 500 0 500 0 500 0M 500 50C 749 50 950 251 950 500C 950 749 749 950 500 950C 251 950 50 749 50 500C 50 251 251 50 500 50C 500 50 500 50 500 50 M 272 217C 272 217 272 217 272 217C 272 217 555 217 555 217C 608 217 650 229 681 253C 713 277 728 313 728 362C 728 391 721 417 707 437C 692 458 672 475 645 486C 645 486 645 488 645 488C 681 495 708 512 727 539C 745 565 755 598 755 638C 755 661 750 682 742 702C 734 722 721 739 704 754C 686 768 664 779 637 788C 610 796 577 801 540 801C 540 801 272 801 272 801C 272 801 272 217 272 217M 374 300C 374 300 374 300 374 300C 374 300 374 462 374 462C 374 462 541 462 541 462C 565 462 585 455 602 441C 618 427 626 407 626 381C 626 351 619 330 604 318C 590 307 568 300 541 300C 541 300 374 300 374 300M 374 535C 374 535 374 535 374 535C 374 535 374 717 374 717C 374 717 554 717 554 717C 585 717 610 709 627 693C 644 677 652 654 652 625C 652 596 644 574 627 558C 609 542 585 535 554 535C 554 535 374 535 374 535"
        transform="">
    </path>    
</svg>