<?xml version="1.0" encoding="UTF-8" standalone="no"?>
<svg 
    role="img" 
    xmlns="http://www.w3.org/2000/svg" 
    width="100"
    height="100"
    viewBox="0 0 1000 1000"
    style="max-width:1.6em; height: auto;">
    
    <path 
        id="path" 
        style="opacity:1;vector-effect:none;fill:#FF840C;fill-opacity:1;"
        d=" M 490 296C 490 295 490 295 491 294 493 293 497 293 499 295 501 295 504 297 504 299 504 301 501 301 500 301 498 301 497 299 495 299 493 298 490 298 490 296ZM 458 299C 457 297 460 296 462 295 465 294 468 293 471 295 471 295 472 296 472 296 471 298 468 298 466 299 465 299 464 301 462 301 460 301 458 301 458 299ZM 821 769C 820 782 811 790 800 797 777 811 743 821 722 846 701 872 674 886 649 888 624 890 601 879 588 853 588 853 588 853 588 853 586 850 585 847 584 843 552 845 523 835 501 837 467 839 446 847 427 847 420 863 406 874 388 877 364 883 333 877 303 862 275 847 239 848 213 843 200 840 188 835 183 824 177 813 178 798 186 776 189 768 187 757 185 744 184 739 183 732 183 727 183 720 184 714 187 708 194 695 205 689 215 686 226 682 235 680 241 673 249 665 256 651 266 642 262 616 267 589 276 562 295 504 335 449 364 415 388 380 395 352 398 317 400 268 361 111 516 112 639 112 632 241 631 311 631 356 656 387 682 420 705 447 735 487 752 533 767 570 772 611 758 653 760 654 762 655 764 656 766 657 768 659 770 660 780 669 784 682 786 694 789 707 792 718 797 724 814 743 821 757 821 769ZM 495 277C 500 278 508 281 515 284 512 265 522 248 533 249 546 249 554 272 546 290 545 293 542 295 541 297 551 301 557 303 560 305 572 290 576 265 566 243 551 211 514 210 499 244 495 255 493 267 495 277ZM 425 306C 437 297 435 298 434 297 422 287 424 256 437 255 446 254 453 271 451 284 456 281 461 279 467 277 469 248 453 227 438 227 409 227 401 283 425 306ZM 411 337C 413 345 420 353 433 361 445 367 451 378 463 383 467 385 472 386 478 386 506 388 519 369 536 364 554 358 566 347 570 336 575 323 567 314 554 309 537 301 530 301 520 295 504 285 492 281 481 281 459 281 446 296 438 303 438 303 426 312 417 319 411 324 409 330 411 337ZM 360 721C 350 703 340 685 330 667 320 653 309 644 297 643 285 641 278 645 270 653 263 661 257 672 248 680 236 690 234 690 219 695 209 699 201 702 196 713 192 720 193 731 195 743 197 755 199 768 196 779 196 779 196 779 196 779 188 800 188 812 192 820 204 843 262 829 308 853 355 878 418 879 422 825 425 794 374 751 360 721ZM 593 775C 598 759 603 743 604 731 605 708 606 688 610 671 615 652 624 636 643 629 646 597 671 597 701 610 730 623 740 635 736 650 737 650 739 650 742 650 750 624 720 607 695 597 700 579 699 561 695 543 686 505 660 470 641 453 638 453 638 456 645 463 663 479 702 538 681 592 675 591 669 590 664 590 656 546 637 509 628 492 611 459 583 393 572 347 565 356 553 365 538 369 531 372 523 378 514 383 493 395 468 396 449 381 443 376 437 370 430 366 428 364 423 361 421 359 418 417 380 489 361 530 349 560 341 592 340 624 307 580 331 523 344 499 359 472 361 465 358 467 344 488 324 522 316 557 312 575 311 593 317 610 322 627 334 643 354 656 354 656 392 678 412 705 423 720 427 733 423 743 420 753 409 756 398 756 405 766 414 776 420 786 477 825 545 810 593 775ZM 790 731C 775 714 779 681 764 668 753 659 743 660 729 661 718 674 690 690 671 685 654 681 644 661 643 640 642 641 642 641 641 641 630 647 624 658 620 673 617 689 615 709 614 732 613 750 605 772 599 794 594 814 590 832 597 849 608 871 627 880 648 878 670 876 695 863 715 839 748 799 809 794 810 769 811 761 806 749 790 731ZM 420 327C 424 328 425 333 427 335 430 338 434 341 439 345 448 353 461 360 476 360 492 360 510 351 522 344 528 341 536 334 543 330 548 326 548 321 552 322 556 322 553 327 547 332 541 337 532 344 525 348 511 355 494 364 476 364 459 364 445 356 435 348 430 344 426 340 423 337 418 333 418 327 420 327Z"
        transform="">
    </path>    
</svg>