<?xml version="1.0" encoding="UTF-8" standalone="no"?>
<svg 
    role="img" 
    xmlns="http://www.w3.org/2000/svg" 
    width="100"
    height="100"
    viewBox="0 0 1000 1000"
    style="max-width:1.6em; height: auto;">
    
    <path 
        id="path" 
        style="opacity:1;vector-effect:none;fill:#FF840C;fill-opacity:1;"
        d=" M 268 661C 268 661 268 793 268 793C 268 795 268 798 268 800C 268 800 268 800 269 802C 271 804 276 809 284 813C 301 823 329 832 366 839C 440 853 535 854 611 841C 649 835 679 825 697 816C 707 811 713 806 716 803C 718 801 718 800 718 800C 718 800 718 661 718 661C 707 667 696 671 682 675C 637 690 576 699 508 700C 440 701 376 694 326 682C 304 676 285 669 268 661C 268 661 268 661 268 661M 268 461C 268 461 268 600 268 600C 268 601 274 607 286 614C 298 621 316 628 338 633C 383 644 443 651 507 650C 571 649 628 640 667 628C 687 621 702 614 710 608C 718 602 718 599 718 600C 718 600 718 461 718 461C 707 467 694 472 680 476C 633 491 570 499 500 500C 431 501 367 493 317 479C 299 474 282 468 268 461C 268 461 268 461 268 461M 268 261C 268 261 268 400 268 400C 268 400 271 405 281 411C 292 418 309 425 331 431C 374 443 434 451 500 450C 566 449 625 441 665 428C 685 422 701 415 709 408C 718 402 718 399 718 400C 718 400 718 261 718 261C 706 267 692 272 677 277C 628 292 564 300 493 300C 422 300 358 292 309 277C 294 272 280 267 268 261C 268 261 268 261 268 261M 493 150C 426 150 365 158 323 171C 303 177 286 185 277 191C 270 196 268 199 268 200C 268 201 270 204 277 209C 286 215 303 223 323 229C 365 242 426 250 493 250C 560 250 621 242 663 229C 684 223 700 215 709 209C 716 204 718 201 718 200C 718 199 716 196 709 191C 700 185 684 177 663 171C 621 158 560 150 493 150C 493 150 493 150 493 150M 493 100C 564 100 628 108 677 123C 701 130 722 139 738 150C 754 162 768 178 768 200C 768 200 768 400 768 400C 768 400 768 600 768 600C 768 600 768 800 768 800C 768 814 761 827 753 837C 744 846 733 854 720 860C 694 873 660 883 619 890C 536 904 438 903 357 888C 317 881 284 871 260 857C 248 850 237 842 229 832C 223 823 218 812 218 800C 218 800 218 800 218 800C 218 800 218 200 218 200C 218 178 232 162 248 150C 264 139 285 130 309 123C 358 108 422 100 493 100C 493 100 493 100 493 100"
        transform="">
    </path>    
</svg>